<svg xmlns="http://www.w3.org/2000/svg" xmlns:xlink="http://www.w3.org/1999/xlink" version="1.1" id="d2" x="0px" y="0px" width="25" height="17" viewBox="0 0 2749.6 2607.9" style="enable-background:new 0 0 2749.6 2607.9;" xml:space="preserve">
  <style type="text/css">
    .st0{fill:#deebffe0;}
</style>
<g id="_x31__1_">
	<path id="_x34_" class="st0" d="M1338,701.3c20.6,0,37.2-16.7,37.2-37.2s-16.7-37.2-37.2-37.2s-37.2,16.7-37.2,37.2   S1317.4,701.3,1338,701.3z"/>
	<path id="_x33_" class="st0" d="M586.5,1959.6c-1.9-12.5-4.5-20.8-7.8-24.9s-7.1-6.1-11.4-6.1c-5.5,0-9.8,2.3-13.1,6.9   s-5.7,13.8-7.4,27.4c-1.6,13.6-2.7,32.7-3.3,57.2c-0.5,24.5-0.8,56.4-0.8,95.6c0,39.8,0.5,71.5,1.6,95.2s2.6,41.9,4.5,54.4   s4.5,20.7,7.8,24.5s7.4,5.7,12.3,5.7c3.8,0,7.2-1.9,10.2-5.7s5.4-12,7.3-24.5c1.9-12.5,3.3-31.1,4.1-55.6s1.2-57.8,1.2-99.7   c0-39.8-0.4-71.6-1.2-95.6C589.8,1990.3,588.4,1972.1,586.5,1959.6z"/>
	<path id="_x32_" class="st0" d="M921.6,1945.7c0,20.5,0.1,40.3,0.4,59.5c0.3,19.2,0.7,36.5,1.3,51.8c0.6,17.9,0.9,35,0.9,51.4   c16.4-0.5,29.3-6.6,38.7-18.4c9.3-11.8,14-31.5,14-59.1c0-27.1-4.4-48.5-13.2-64.1C954.9,1951.2,940.8,1944.1,921.6,1945.7z"/>
	<path id="_x31_" class="st0" d="M2694.5,1723.2c-40.7,3.1-81.3,6.3-122,9.4c-40,3.1-80.1,6.3-120.1,9.4   c-45.9,3.6-91.8,7.1-137.6,10.9c-5.9,0.5-8.8-1.4-11.6-6.3l-223.8-64.2l-248.3,30.9c-2.6-2.7-6.7-4.6-12.3-5.8   c-17.8-3.8-35.4-8.2-53.1-12.2c-9.3-2.1-14.9-7.5-19.2-16.5c-20.6-43.3-42-86.2-63.4-129.2c-2.4-4.9-2.4-8.2,0.5-13.3   c10.3-18.1,20-36.6,29.4-55.2c6-11.9,0.9-20-12.2-23c-21.5-5-43-10.4-64.2-16.6c-4.3-1.3-8.9-5.8-11-10   c-23.3-46.4-46-93.1-69.1-139.6c-2.6-5.2-2.6-9,0.4-14.4c10-17.5,19.2-35.5,28.3-53.5c6.3-12.6,1.5-20.7-12.2-23.8   c-21.2-4.9-42.3-10.3-63.3-16.1c-3.6-1-7.6-4.3-9.4-7.7c-28.5-53-56.6-106.2-84.8-159.4c-1.5-2.8-2.8-5.8-2.3-10   c13.5,15.1,27.2,30,40.4,45.3c13.8,15.9,13.6,16,32.9,8.5c56.7-22.1,113.5-44.1,170.1-66.5c10.5-4.2,19.9-4.6,30.6-0.6   c44.7,16.4,89.7,32,134.5,48.2c19.7,7.1,37.5,4.8,54.4-7.5c22.2-16.1,44.7-31.9,67-47.9c2.4-1.7,4.8-3.7,6.4-6.1   c5.7-8.6,2.6-16-7.4-18.4c-27-6.5-53.9-13-80.6-21.7c24.3,0,48.6,0,74,0c0-13.5,0.6-26.3-0.2-39.1c-0.5-9.1-7.3-13.5-18.6-13.5   c-28.8,0-57.6,0-86.4,0c-21.8,0-43.7,0-65.6,0c-2.2,0-4.3-0.2-7-2.3c2.8-1.1,5.5-2.3,8.3-3.3c20.4-6.8,40.8-13.5,61.2-20.2   c21.4-7.1,30.2-22.5,25-44.7c-10.8-46.1-21.8-92.1-32.6-138.1c-5.7-24.4-20.1-41.1-43.2-50.8c-111.7-46.8-222.9-94.8-335.3-139.8   c-50.6-20.2-103.5-34.4-155.4-51.3c-21.4-6.9-43-13.4-64.2-20.8c-7-2.5-11-1.4-15.9,4.3c-18.3,21.2-37.3,41.9-56,62.7   c-0.8-0.5-1.5-1.1-2.3-1.6c6.9-12.6,13.5-25.3,20.7-37.6c35.7-61.5,69.6-124.1,107.8-184c32.4-50.7,69.8-98.2,104.9-147.1   c11.9-16.6,8.8-36.8-7.1-46.9c-2.8-1.7-5.9-3.6-9-3.9c-35.1-3.5-65.9,1.2-89.7,32.9c-75.3,100.3-152,199.6-228.6,299   c-19.2,25-28.8,52.3-28,83.8c0.5,22.5,0,45,0.2,67.6c0.2,21.6-4.7,42-14.2,61.3C969,679,934,751.4,898.2,823.4   c-13.4,27-15.8,54-6.6,82.6c13.3,41.2,25.8,82.7,39.1,123.9c3.2,9.9,4,19.1,0.4,28.9c-9.7,26.7-18.9,53.6-28.9,80.2   c-5.8,15.6-3,21.7,13.5,25.4c10.9,2.5,21.8,4.7,34.2,7.3c-5.6,14.1-10.7,27.3-16.1,40.3c-6.3,15.2-2.8,22.4,13.2,25.7   c14.3,2.9,28.5,5.7,42.9,8.1c5.9,1,9.2,3,10.9,9.2c6,20.7,12.4,41.2,19.2,61.6c10.8,32.7,5,64.7-2.6,96.9   c-4.9,20.6-8.8,41.4-13.8,62c-1.2,4.9-3.8,10.3-7.4,13.5c-23.5,21.3-47.3,42.3-71.5,62.8c-13.7,11.6-14.7,18.3-1.3,30.2   c13.6,12.1,27.5,23.9,41.7,35.3c4.8,3.8,6.9,7.5,4.9,13.4c-0.1,0.3-0.2,0.6-0.2,1c-1.6,25.7-15,44-35.3,58.7   c-14.5,10.4-27.9,22.3-41.9,33.4c-1.8,1.4-3.2,2.9-4.4,4.3l-204.7-19.8l-233.2,82c2-21.3,3.3-41.9,6-62.3   c1.2-9.1-1.2-10.7-9.7-10.4c-37.3,1.4-74.7,2.4-112,3.3c-73.5,1.8-146.9,3.6-220.4,5.2c-22.5,0.5-45,0.4-67.5,0.6   c0,272.8,0,545.5,0,818.3c3.2,2.6,7.1,2,10.7,1.7c33.8-3.2,67.6-7.3,101.4-10.9c47.3-5.1,94.7-9.6,142.1-14   c37.5-3.5,75.1-7,112.6-9.9c35.1-2.8,70.2-5.9,105.3-8.3c31.1-2.1,62.2-4.3,93.4-6.3c45.3-3,90.6-5.6,135.9-8.5   c36.4-2.3,72.8-3.9,109.2-5.5c47.8-2.2,95.7-3.9,143.5-5.7c43.2-1.6,86.4-2.2,129.7-3.7c38-1.3,76-1.5,114-1.7   c98-0.5,196-1.3,294,1c45.4,1.1,90.8,3.2,136.3,2.3c1.2,0,2.5,0.1,3.7,0.1c42.8,3.1,85.8,3.1,128.7,5c36.7,1.6,73.4,3.2,110.2,4.5   c12.9,0.5,26,0.8,38.9,1.8c38.5,3,77.1,4.4,115.6,6.8c33.9,2.1,67.8,4,101.7,6.4c45.3,3.2,90.6,6.6,135.8,10.2   c48.4,3.9,96.7,7.6,145,12.1c74.5,7,148.9,14.1,223.2,22.9c8.6,1,17.7,4,26.4-0.4c0-274,0-548,0-822.1   C2700.7,1723.1,2697.6,1723,2694.5,1723.2z M1595.7,1735.4c1.3-7.2,3.2-14.2,4.3-21.4c4.3-28.8,8.5-57.6,12.7-86.5   c16.1,29.9,15.7,63,14.6,96c10,0,19,0,28.3,0c-4.3-34.4-4.7-67.3,17.5-98.8c0,17.3-1.9,32.3,0.4,46.7c3.3,20.7,9.4,41.1,14.8,61.5   c3.4,12.9-1.7,21.2-14.9,21.5c-20.8,0.4-41.7,0.4-62.5,0C1598.9,1754.2,1593.6,1747,1595.7,1735.4z M1450.2,1418.8   c4-20.8,8.1-41.5,11.2-62.4c2.2-14.7,3-29.6,4.6-46.3c17.2,32.1,16.5,65.1,15.4,98.3c10,0,19.1,0,28.6,0c-4.8-34.7-4.8-68,18-97.1   c-0.5,5.2-1.2,10.3-1.5,15.4c-1.8,29.6,4.8,57.8,14.2,85.5c6.7,19.7,2.3,26.6-18.3,26.9c-18.8,0.3-37.7,0.3-56.5-0.1   C1452.8,1438.7,1447.7,1431.6,1450.2,1418.8z M1435.1,1622.3c3.6-18.8,7.5-37.6,10.3-56.5c2.4-16.3,3.5-32.8,5.4-51.5   c3.2,7.2,6.1,12.4,7.9,17.9c8.4,26.1,9.5,53.1,7.2,80.8c9.8,0,18.9,0,28.8,0c-4.4-34.9-4.7-67.9,17.1-96.9   c0.3,6.3-0.6,12.5-0.8,18.7c-1.2,30.3,6.6,58.9,16.1,87.2c4.4,13.2-1.2,21.6-15.1,21.8c-19.8,0.4-39.7,0.5-59.5,0.2   C1437.2,1643.7,1432.3,1637,1435.1,1622.3z M1414.5,1113.8c0,14.8-1.7,27.6,0.4,39.7c4,22.7,9.9,45.1,15.5,67.5   c3,11.9-0.8,20.8-11.9,21.2c-22.4,0.8-45,0.8-67.4,0.1c-10.3-0.3-15.3-7.6-13.4-17.9c7-36.1,15.5-72.1,15.7-109.4   c17.5,30,16.9,63.2,16,96.5c9.9,0,18.6,0,28.3,0C1393.2,1177.6,1392.9,1144.7,1414.5,1113.8z M1341.8,554.7   c46.9,0,84.9,53,84.9,118.3c0,65.4-38,118.3-84.9,118.3s-84.9-53-84.9-118.3C1256.8,607.6,1294.9,554.7,1341.8,554.7z    M1249.8,1497.2c2.9-15.3,6.4-30.4,8.6-45.8c3-20.6,5.1-41.4,7.7-63.5c2.6,5.7,5.1,10.2,6.8,15.1c9.4,26.6,9.9,54.3,8.1,82.4   c9.9,0,19.2,0,28.7,0c-4.6-34.6-4.7-67.7,17.7-96.7c-0.5,7.4-1.4,14.8-1.5,22.2c-0.6,28.9,6.9,56.2,16.1,83.2   c4.5,13.2-1.1,21.9-14.8,22.1c-20.8,0.4-41.7,0.3-62.5,0C1252.9,1516.1,1247.6,1508.8,1249.8,1497.2z M1235.6,1733.1   c4.9-28,9.4-56.1,13.8-84.2c1.1-7.1,0.8-14.4,1.3-24.4c18,33,16.7,66.2,16.1,99.2c10.1,0,18.9,0,28.4,0c-5.7-46.6,2-86.5,17.9-96.4   c-0.5,6.9-1.3,14.1-1.4,21.4c-0.7,28.9,6.7,56.3,16,83.3c4.7,13.6-1.4,22.1-15.8,22.4c-19.9,0.3-39.7,0.3-59.6,0   C1238,1754.3,1233.1,1747.2,1235.6,1733.1z M1138.7,1174.7c2.1-10.7,4.7-21.3,6.3-32.1c3.6-24.9,6.8-49.8,10.3-75.4   c2.1,4.7,4.6,9.3,6.3,14.1c9.6,26.6,9.9,54.2,8.2,82.6c9.8,0,18.9,0,28.8,0c-4.6-34.9-4.7-67.9,17.1-96.9c0.2,6.6-0.6,13-0.8,19.5   c-1.1,29.9,6.5,58.2,16,86.2c4.6,13.3-0.8,21.8-14.8,22.1c-20.8,0.6-41.7,0.5-62.5,0C1141.2,1194.5,1136.2,1187,1138.7,1174.7z    M1099.5,1375.2c7.1-34.9,14.9-69.7,15.3-105.9c17.5,30.1,16.9,63.4,15.9,96.4c10,0,18.8,0,28.3,0c-4.3-34.5-4.7-67.8,17-96.8   c0.3,7.4-0.6,14.6-0.8,21.8c-0.5,28.9,6.9,56.2,16.1,83.3c4.6,13.7-1.2,22.3-15.6,22.5c-19.8,0.3-39.7,0.3-59.5,0   C1101.9,1396.3,1096.6,1389.3,1099.5,1375.2z M1112.6,1546.4c0,14-1.7,26.8,0.4,38.9c3.9,22.7,9.6,45,15.3,67.4   c3.3,12.9-0.8,21.8-12.9,22.2c-21.8,0.6-43.6,0.6-65.5,0.1c-10.4-0.2-16.1-7.2-14.2-17.2c6.9-36.4,15.6-72.6,15.8-110.1   c17.8,30.1,16.6,63.4,16.1,96.8c9.7,0,18.5,0,28.2,0C1091.2,1609.9,1091,1576.7,1112.6,1546.4z M990.8,1051.3   c-10.5-0.2-15.9-7.8-14.1-18.3c6-36,12.1-72,18-107.3c15.4,28.8,14.7,61.8,13.6,94.9c10,0,19.1,0,28.6,0   c-4.8-34.8-4.6-68,17.1-97.1c0.3,6.7-0.4,13.2-0.7,19.7c-1.3,30.3,6.6,58.9,16.2,87.2c3.9,11.5-1.6,20.7-13.3,20.9   C1034.5,1051.8,1012.7,1051.8,990.8,1051.3z M357.9,2095.8c0,13.6-2.5,53.8-2.5,73s0.3-1.9,0.9,20.6c-7.7-0.6-17.2-0.9-28.4-0.9   h-21.5c-14.8,0-25.2,0.3-45.9,0.9c0.6,26.6,1,72.9,1.3,102.4c0.3,29.6,1,121.4,2.2,154.5l-159.7,33.5c0,0-0.3-201.8-0.9-265.1   c-0.6-54.4-1.3-119-2.2-193.8c-0.9-74.8-2.2-162-4-251.9c23.7,0.6,50.6,0.6,80.7,0c26,0,56.8,2.2,92.3,1.6s75.4,1,119.8-0.2   c-0.6,11.2-0.9,24.5-0.9,39.9c-0.6,13.6-0.9,30.2-0.9,49.7v69.2c-8.3-0.6-18.6-0.9-31-0.9c-10.6,0-24.3,0.2-40.8,0.4   c-16.6,0.3-36.1,0.8-58.6,1.3v32.8c0,10.7-0.1,23.7-0.4,39.1s-0.2,19.1,0.4,38.7h38.6c20.4,0,27.1-0.6,61.4-1.8L357.9,2095.8   L357.9,2095.8z M740.6,2252.2c-7.6,37-18.9,67-33.9,89.9s-34.1,39.5-57.2,49.9c-23.2,10.3-50.5,15.5-82.1,15.5   c-33.8,0-62.4-6.3-85.8-18.8s-42.5-31.1-57.2-55.6s-25.5-54.8-32.3-90.7c-6.8-36-10.2-77.7-10.2-125.1c0-45.2,2.7-86.5,8.2-123.8   c5.4-37.3,15.1-69.5,29-96.4c13.9-27,32.7-48,56.4-63c23.7-15,54.1-22.5,91.1-22.5c37.6,0,68.5,6.9,92.8,20.8   c24.2,13.9,43.3,33.9,57.2,60.1s23.4,58,28.6,95.6c5.2,37.6,7.7,80.4,7.7,128.3C752.3,2169.9,748.2,2215.1,740.6,2252.2z    M1109.5,2409.8c-13.6,1.1-30.3,2.4-50.2,3.8c-19.8,1.4-42.5,2.7-68,3.8l-14.5-57.8c-4.6-18.7-10.2-33.9-17-60.3   c-6.8-26.4-14.7-56-23.8-88.9c-0.6,0.6-1.7,0.8-3.4,0.8h-8.5l3.4,182.9h-44.2h-50.2c-19.3,0-40.3,0.3-62.9,0.8   c0.6-45.4,1.1-97.8,1.7-157.3c0.6-51,1-112.3,1.3-183.7c0.3-71.5,3.1-147.1,3.1-237.3c25.5-4.6,117.2-2,137.1-2   c78.8,0,115.3,4.7,151.9,40.7s69.9,85.1,69.9,156c0,37.4-3.9,68.6-16.7,93.6c-12.8,25-30.2,45.4-52.3,61.2   c3.4,11.3,11.9,37.6,25.5,78.7c13.6,41.1,33.4,90.3,59.5,162.3C1139.3,2407.8,1125.4,2408.6,1109.5,2409.8z M1459.1,1991.1h-24.8   c-8.3,0-5.9-0.2-17.5-0.5c-11.5-0.3-24.7-0.4-39.5-0.4v83.4c0,30.8,0.1,38.3,0.4,76.4c0.3,38.1,0.7,43.5,1.3,89.7   c0.6,46.1,1.2,97.6,1.8,154.3c-11.2-0.6-24.5-0.9-39.9-0.9c-13.6,0-30.3,0.1-50.1,0.4c-19.8,0.3-43,0.7-69.7,1.3   c0.6-36.6,0.9-78.9,0.9-126.8c0-40.8-0.1-53.2-0.4-110.5c-0.3-57.4-0.8-122.1-1.3-194.3l-82.7,0.9c0.6-8.3,0.9-19.5,0.9-33.7   c0-11.8-0.2-27.5-0.4-47c-0.3-19.5-0.8-43.8-1.3-72.7c0,0,262.9,18.2,323.4,26.9c-0.6,12.4-1.2,41.3-1.4,60.5   C1458.3,1917.3,1458.5,1966.2,1459.1,1991.1z M1711.2,2407.8c-8.6-24.4-18.4-52.4-29.2-83.8c-9.8-26.8-21.2-48.5-34.4-84.9   c-13.2-36.4-27.8-76.7-43.8-120.9c1.1,30.3,2.6,67.2,4.3,110.9c1.7,43.6,4.6,96.6,8.6,158.9c-11.5,0-24.6-0.3-39.5-0.9   c-12.6-0.6-27.9-1-46-1.3c-18-0.3-38-0.4-59.7-0.4c0.6-43.1,0.9-93.4,0.9-151c0-49.5-0.3-109-0.9-178.5c-0.6-69.6,1.1-135.5,0-224   c12.6-0.6,115-21.3,136.2-22.5c7.4,22.7,18.8,51.3,29.1,81c8.6,25.6,19.2,56.7,31.8,93.4c12.6,36.7,27.2,78.3,43.8,124.8   c-1.7-35.5-4.3-80.5-7.7-134.9c-3.4-54.4-8.3-95.3-14.6-171.5c10.9,0.6,118.3,0.8,140.1,0.2c0.6,47.7-2.1,495.3,0.8,593.1   C1821.7,2396.5,1735.3,2406,1711.2,2407.8z M1987.9,2417h-121.5v-179.2c0-55.6-0.3-120.6-0.9-195.2c-0.6-74.5-1.5-123.4-2.6-210.3   h40.8h50.1c19.8,0,43-0.3,69.6-0.9c0,58.5,0.3,89.7,0.9,157.1c0.6,57.4,1,123,1.3,196.9s1,151.1,2.2,231.5L1987.9,2417L1987.9,2417   z M2362.1,1891.5c-0.6,13.6-1,30-1.2,49.2c-0.3,19.2-0.2,26.6,0.4,51.4h-23.2c-7.7,0-17-0.1-27.8-0.4s-23.1-0.4-36.9-0.4v83.4   c0,30.8,0.1,79.9,0.4,118c0.3,38.2,0.7,38.7,1.2,84.8s1.1,97.6,1.7,154.4c-10.5-0.6-23-0.9-37.3-0.9c-12.7,0-28.3,0.1-46.9,0.4   c-18.5,0.3-40.2,0.7-65.1,1.3c0.5-36.7,0.8-79,0.8-126.9c0-40.8-0.1-48.3-0.4-105.6c-0.3-57.4-0.7-122.1-1.2-194.3l-88.7,0.9   c0.5-8.3,0.8-19.5,0.8-33.7c0-11.8-0.1-27.5-0.4-47s-0.7-43.8-1.2-72.7c0,0,272.5-9.7,326.6-10.9   C2363.2,1854.9,2362.6,1876.1,2362.1,1891.5z M2530.6,1985.4c0.3,9.8,0.4,38.1,0.4,45.8v24c3.3,0,12.8,0.1,28.7,0.4   c15.8,0.3,40.2-0.2,72.9-1.3v42.6v47.5c0,18,0.3,18.4,0.8,40.3h-28.7c-9.3,0-19.9-0.1-31.9-0.4c-12-0.3-24.9-0.4-38.5-0.4v21.3   c0,14.2,0.8,52.7,2.5,76.4c8.7,0.6,19.1,1.2,31.1,1.8c9.8,0.6,21.8,1.3,36,2.2s30,1.6,47.5,2.2c-0.5,10.1-0.8,22.5-0.8,37.3   c-0.6,12.4-0.8,27.8-0.8,46.1v89.2c-24-0.6-231.8-17.8-266.3-18.4c-0.6-51.4,6.2-121.4,5.7-185.2c-0.6-55-1.2-119.7-2-194.3   c-0.8-74.5-1.8-169-2.9-258.9c15.3,0,217.4-24.1,267.1-24.7v78.6v49.2c0,19.2,0.5,20.8,1.6,43.8c-15.3,0.6-30.3,0.9-45.1,0.9   c-12.6,0.6-25.8,0.9-39.7,0.9s-26.4,0.3-37.3,0.9C2530.4,1964.8,2530.3,1975.6,2530.6,1985.4z"/>
</g>
</svg>