<svg xmlns="http://www.w3.org/2000/svg" viewBox="0 0 565.94 625.01"><defs><style>.cls-1{fill:#6b4745;}.cls-1,.cls-10,.cls-11,.cls-12,.cls-13,.cls-14,.cls-15,.cls-16,.cls-17,.cls-18,.cls-19,.cls-2,.cls-3,.cls-4,.cls-5,.cls-6,.cls-7,.cls-8,.cls-9{fill-rule:evenodd;}.cls-2{fill:#1c4a6b;}.cls-3{fill:#0a1221;}.cls-4{fill:#e89673;}.cls-5{fill:#0a6978;}.cls-6{fill:#f2ba96;}.cls-7{fill:#f2a87d;}.cls-9{fill:#294078;}.cls-10{fill:#2e4787;}.cls-11{fill:#b2b2b2;}.cls-12{fill:#999;}.cls-13{fill:#ccc;}.cls-14{fill:#7ac7eb;}.cls-14,.cls-15,.cls-16,.cls-17,.cls-18,.cls-19{stroke:#000;stroke-miterlimit:2.61;}.cls-14,.cls-15,.cls-16,.cls-17{stroke-width:0.75px;}.cls-15{fill:#61bfc7;}.cls-16{fill:#d6d9de;}.cls-17{fill:#f2877d;}.cls-18{fill:#c2ded1;}.cls-18,.cls-19{stroke-width:0.5px;}.cls-19{fill:#97aca2;}</style></defs><g id="Layer_2" data-name="Layer 2"><g id="Layer_1-2" data-name="Layer 1"><polygon class="cls-1" points="375.07 433.8 505.7 433.8 505.7 452.82 375.07 452.82 375.07 433.8 375.07 433.8"/><polygon class="cls-2" points="411.21 452.35 454.33 452.35 454.33 461.87 411.21 461.87 411.21 452.35 411.21 452.35"/><polygon class="cls-3" points="428.97 461.63 437.85 461.63 437.85 570.7 428.97 570.7 428.97 461.63 428.97 461.63"/><polygon class="cls-3" points="405.5 569.51 463.21 569.51 463.21 580.92 405.5 580.92 405.5 569.51 405.5 569.51"/><path class="cls-4" d="M351,222.61l23.83,17.87,2,31.76c-4,14.22-22.83,37.88-26.55,40.2-4.8,3-40.61-.5-63.77-.5l-6.95-19.85c10.42-7.61,28.29-12.74,48.14-18.36,8.93-4.64,14.89-36.07,23.32-51.12Z"/><path class="cls-5" d="M372.79,239c-11.08-2-19.19-7-26.3-15.88,4.63-14.89,10.75-33.75,21.34-45.17,12.9-11.74,27.29-16,47.64-21.83l47.64-7c25.64,3.64,52.28,23.16,59.56,34.74C539,212.35,489.49,320,491,369.76c-28.13-1.41-97.74-2.57-100.82-8.19-2.75-5.95-13.73-94.3-17.37-122.58Z"/><path class="cls-6" d="M460.14,239.48c9.26,9.27,23,14.56,39.7,15.88-5,21.84-20.35,56.58-30.77,61.05-9.79,4.16-77,1.19-109.18-9.43-14.89,5-41.69,6.94-44.67,3-5-14.39-4.46-24.81,23.82-35.73,12.41-3.47,26.8,10.92,38.71,15.39,11.25,3.8,56.74-4.3,65-13.9,7.11-9.26,12.73-24,17.37-36.23Z"/><path class="cls-7" d="M462.62,153.63a133.59,133.59,0,0,1-5.46-41.19c30.93-14.56,16.71-62.87-7-19.86l-1-38.71L362.86,44c5,38.38-8.93,126.38,56.58,109.18,4-.08,1,8-1,14.64,14.22,5.46,35.9.25,44.17-14.14Z"/><path class="cls-8" d="M375.52,81.91c-2.74,0-5,3.11-5,7s2.22,7,5,7,5-3.11,5-7-2.22-7-5-7Z"/><path class="cls-8" d="M366.59,67.52,381.48,67,382,75s-14.39-.5-14.89-1.49-.49-6-.49-6Z"/><polygon class="cls-8" points="396.36 65.54 420.68 68.02 420.19 76.95 395.87 72.98 396.36 65.54 396.36 65.54"/><path class="cls-8" d="M407.53,82.91c-2.88,0-5.21,3.11-5.21,6.94s2.33,7,5.21,7,5.21-3.11,5.21-7-2.33-6.94-5.21-6.94Z"/><polygon class="cls-8" points="390.9 104.74 387.93 115.17 394.38 121.62 384.45 118.64 390.9 104.74 390.9 104.74"/><path class="cls-8" d="M420.19,137.5c-7.28,6.45-17,8.68-27.8,1.49,11.25,2.48,17.54,1.73,27.8-1.49Z"/><path class="cls-8" d="M363.11,51.64c-8.93-9.43-16.87-23.82-10.42-31.26C377,4.66,412.24-3.61,434.58,1.52c15.88,4.79,26.8,9.59,35.73,20.34,12.57,18.7-2.65,33.92-2,53.11C458.9,78.11,452.94,86.21,451,94.32c-4.46-8.1-8.43-23.66-2.48-39.21-30.27,7.78-67,9.1-85.36-3.47Z"/><path class="cls-9" d="M490.29,366.21c11.27,29,8.24,62.13-28.59,75.39-28.6,9.8-71-5.64-83,4.45-8.41,6.7,30.18,112.7,36.23,147.63h-39c-15.6-33.83-42.73-97.19-56.35-146.91-19.87,50.22-32,105.32-52.84,149.08l-36.84-10.8c21.23-52.86,24.66-149.61,52.83-179.85,20.23-22,74.55-33.13,108.67-45.19,33,3.91,84.38,9.2,98.91,6.2Z"/><path class="cls-10" d="M481.81,401.31c-5.2-26.87-14.39-25.55-57.28-26.42-25.45,4.33-79.54,13.2-99.2,37.72-11.74,15.86,7,36.79,12.2,51.09,10.54,34.45,20.41,82.16,41.59,126.08l27.3-2.59c-6.55-46.63-53.66-137.52-39-148.19,38.13-12.56,120.46,8.67,114.39-37.69Z"/><path class="cls-1" d="M375,591.84c-20.17,8.23-39.41,22.46-36.52,26.54,5.68,9.94,79,7.29,81.63,1.3,3.54-5,.62-20.1-5.53-27.84a126.22,126.22,0,0,1-39.58,0Z"/><path class="cls-1" d="M268.57,592.78c3,9.65,6.7,21.57,3.31,29.85-3.38,6.75-86.2-7.79-87.55-19.21-3-11,34.56-16,46.52-20.21,11.38,6.92,26.41,8.84,37.72,9.57Z"/><polygon class="cls-11" points="384.2 314.63 296.85 314.63 258.14 181.62 60.63 184.6 102.31 312.64 104.3 323.56 385.19 326.54 384.2 314.63 384.2 314.63"/><polygon class="cls-12" points="252.93 188.32 66.83 189.31 108.52 311.9 289.16 315.37 252.93 188.32 252.93 188.32"/><path class="cls-13" d="M172.54,232a16.38,16.38,0,1,0,16.37,16.37A16.37,16.37,0,0,0,172.54,232Z"/><path class="cls-14" d="M362.45,272.07c13.48-3.48,30.92-2,38.94,0v5.37c23.05,2.68,19.92,32.9.67,36.25v12.76H362.11c-1.37-5.22-1.76-36.25.34-54.38Zm39.61,13.43L402.4,307c4.47-.34,8.28-5,8.39-10.07.11-5.82-3.13-12.31-8.73-11.41Z"/><polygon class="cls-15" points="442.33 302.62 416.14 310 414.8 326.11 440.99 326.11 442.33 302.62 442.33 302.62"/><polygon class="cls-16" points="441.26 303.29 533.24 303.29 533.24 325.44 439.92 326.11 441.26 303.29 441.26 303.29"/><polygon class="cls-17" points="453.34 280.78 430.02 288.17 428.82 304.28 452.14 304.28 453.34 280.78 453.34 280.78"/><polygon class="cls-16" points="453.07 281.45 534.98 281.45 534.98 303.61 451.87 304.28 453.07 281.45 453.07 281.45"/><polygon class="cls-18" points="0.25 323.75 565.69 323.75 565.69 341.95 0.25 341.95 0.25 323.75 0.25 323.75"/><polygon class="cls-19" points="10.65 617.08 24.96 616.64 56.14 353.21 504.59 353.22 543.59 615.78 557.03 615.78 516.29 341.51 44.45 341.51 10.65 617.08 10.65 617.08"/></g></g></svg>