<svg xmlns="http://www.w3.org/2000/svg" xmlns:xlink="http://www.w3.org/1999/xlink" version="1.1" id="Layer_1" x="0px" y="0px" viewBox="0 0 512.001 512.001" style="enable-background:new 0 0 512.001 512.001;" xml:space="preserve">
<path style="fill:#FFFFFF;" d="M473.104,371.85c0.176-0.61,0.336-1.227,0.479-1.848c0.046-0.201,0.089-0.403,0.131-0.604  c0.113-0.54,0.213-1.085,0.3-1.632c0.037-0.237,0.076-0.474,0.11-0.711c0.075-0.546,0.131-1.095,0.18-1.644  c0.021-0.225,0.047-0.448,0.063-0.674c0.052-0.767,0.084-1.537,0.084-2.313l0,0l0,0v-0.006l-0.006-40.904v-0.002l-0.005-26.203  v-0.002v-4.213l-0.004-25.574l0,0l-0.008-48.824l-0.005-26.203l-0.006-40.985c0-2.995-0.408-5.931-1.16-8.75  c-0.405-1.517-0.915-2.997-1.521-4.435c-2.477-5.876-6.574-11.016-11.925-14.74c-0.784-0.545-1.584-1.071-2.419-1.553  l-22.874-13.202l-21.414-12.358l-17.239-9.949l-65.928-38.046l-25.717-14.844l-19.288-11.132l-11.953-6.899  c-10.533-6.078-23.509-6.076-34.04,0.007l-11.872,6.857l-19.288,11.14l-25.717,14.853l0,0l-65.915,38.072l-28.89,16.686  l-21.408,12.365l-11.282,6.516c-0.811,0.469-1.59,0.98-2.353,1.507c-3.272,2.268-6.073,5.067-8.333,8.236  c-1.517,2.127-2.781,4.422-3.773,6.841c-1.655,4.032-2.558,8.399-2.557,12.899l0.006,40.913l0.005,26.203l0.012,73.738v4.011v0.85  v0.001v0.013l0,0v0.005l0,0l0.005,26.198v0.002v1.863l0.002,12.617l0.004,26.496v0.007l0,0c0,0.773,0.033,1.539,0.084,2.305  c0.016,0.224,0.042,0.445,0.061,0.668c0.048,0.55,0.105,1.096,0.18,1.638c0.033,0.236,0.072,0.471,0.108,0.708  c0.087,0.544,0.186,1.086,0.298,1.625c0.042,0.201,0.086,0.403,0.131,0.603c0.14,0.615,0.298,1.222,0.471,1.825  c0.033,0.113,0.061,0.228,0.095,0.34c0.909,3.043,2.24,5.93,3.94,8.588c0,0.001,0.001,0.002,0.001,0.002  c0,0.001,0.001,0.002,0.001,0.002c1.172,1.832,2.517,3.551,4.026,5.137c0.051,0.053,0.099,0.106,0.148,0.159  c0.709,0.734,1.454,1.438,2.231,2.112c0.125,0.11,0.254,0.215,0.382,0.322c0.786,0.661,1.595,1.298,2.445,1.89  c0.784,0.545,1.584,1.07,2.419,1.553l22.552,13.016l21.414,12.359l17.561,10.134l91.644,52.89l19.288,11.132l11.953,6.899  c10.533,6.078,23.509,6.076,34.04-0.007l11.872-6.857l19.288-11.14l25.717-14.853l55.554-32.086l10.363-5.985l26.36-15.225  l21.408-12.365l13.813-7.977c0.811-0.469,1.59-0.98,2.353-1.507c0.851-0.588,1.659-1.226,2.446-1.884  c0.128-0.106,0.258-0.212,0.385-0.323c0.78-0.671,1.526-1.374,2.237-2.108c0.047-0.048,0.09-0.098,0.136-0.145  c3.724-3.893,6.476-8.61,8.02-13.767C473.045,372.067,473.073,371.958,473.104,371.85z"/>
<g>
	<path style="fill:#ED1F34;" d="M116.146,84.527l-28.89,16.686l-21.408,12.365l-11.282,6.516c-0.811,0.469-1.59,0.98-2.353,1.507   c-3.272,2.268-6.073,5.067-8.333,8.236c-1.517,2.127-2.781,4.422-3.773,6.841c-1.655,4.032-2.558,8.399-2.557,12.899l0.006,40.913   l0.005,26.203l0.012,73.738v4.011v0.849v0.002v0.013l0,0v0.005l0,0l0.005,26.198v0.002v1.863l0.002,12.617l0.004,26.496v0.007l0,0   c0,0.773,0.033,1.539,0.084,2.305c0.016,0.224,0.042,0.445,0.061,0.668c0.048,0.55,0.105,1.096,0.18,1.638   c0.033,0.236,0.072,0.471,0.108,0.708c0.087,0.544,0.186,1.085,0.298,1.625c0.042,0.201,0.086,0.403,0.131,0.603   c0.14,0.615,0.298,1.222,0.471,1.825c0.033,0.113,0.061,0.228,0.095,0.34c0.909,3.043,2.24,5.93,3.94,8.588   c0,0.001,0.001,0.002,0.001,0.002c0,0.001,0.001,0.002,0.001,0.002c1.172,1.832,2.517,3.551,4.026,5.137   c0.051,0.053,0.099,0.106,0.148,0.159c0.709,0.734,1.454,1.438,2.231,2.112c0.125,0.11,0.254,0.215,0.382,0.322   c0.786,0.661,1.595,1.298,2.445,1.89c0.784,0.545,1.584,1.07,2.419,1.553l22.552,13.016l21.414,12.359l17.561,10.134l4.687,2.705   V81.826L116.146,84.527z"/>
	<path style="fill:#ED1F34;" d="M474.445,321.512v-0.002l-0.005-26.203v-0.002v-4.213l-0.004-25.574l-0.008-48.824l-0.005-26.203   l-0.006-40.985c0-2.995-0.408-5.931-1.16-8.75c-0.405-1.517-0.915-2.997-1.521-4.435c-2.477-5.876-6.574-11.016-11.925-14.74   c-0.784-0.545-1.584-1.071-2.419-1.553l-22.874-13.202l-21.414-12.358l-17.239-9.949l-4.687-2.705v55.23v32.443v260.686   l4.677-2.702l26.36-15.225l21.408-12.365l13.813-7.977c0.811-0.469,1.59-0.98,2.353-1.507c0.851-0.588,1.659-1.226,2.446-1.884   c0.128-0.106,0.258-0.212,0.385-0.323c0.78-0.672,1.526-1.374,2.237-2.108c0.047-0.048,0.09-0.098,0.136-0.145   c3.724-3.893,6.476-8.61,8.02-13.767c0.031-0.106,0.059-0.215,0.09-0.322c0.176-0.611,0.336-1.228,0.479-1.849   c0.046-0.201,0.089-0.403,0.131-0.604c0.113-0.54,0.213-1.085,0.3-1.632c0.037-0.237,0.076-0.474,0.11-0.712   c0.075-0.545,0.131-1.093,0.18-1.643c0.02-0.225,0.047-0.448,0.063-0.674c0.052-0.767,0.084-1.537,0.084-2.313l0,0v-0.006   L474.445,321.512z"/>
	<polygon style="fill:#ED1F34;" points="347.487,211.654 305.718,213.904 278.203,247.585 283.945,190.619 256,159.493    228.056,190.619 233.797,247.585 206.283,213.904 164.514,211.654 166.764,253.423 208.846,287.8 208.846,309.483 303.155,309.483    303.155,287.8 345.237,253.423  "/>
</g>
<path d="M483.457,149.503c0-3.711-0.494-7.438-1.465-11.078c-0.506-1.899-1.155-3.789-1.925-5.615  c-3.179-7.544-8.398-13.991-15.096-18.652c-1.118-0.778-2.089-1.4-3.062-1.961L277.499,5.767C270.96,1.994,263.514,0,255.965,0  c-7.555,0-15.005,1.996-21.547,5.776L50.043,112.265c-0.95,0.549-1.896,1.152-2.978,1.902c-4.086,2.831-7.635,6.335-10.547,10.421  c-1.912,2.683-3.519,5.597-4.775,8.658c-2.147,5.23-3.234,10.724-3.234,16.334l0.035,212.917c0,0.921,0.034,1.876,0.105,2.919  c0.016,0.234,0.037,0.469,0.061,0.702l0.014,0.143c0.061,0.693,0.134,1.385,0.231,2.095c0.034,0.24,0.071,0.477,0.108,0.716  l0.025,0.16c0.11,0.691,0.235,1.378,0.38,2.075c0.053,0.254,0.107,0.508,0.163,0.746c0.177,0.779,0.377,1.547,0.608,2.351  l0.112,0.393c1.144,3.827,2.821,7.486,4.988,10.875c1.484,2.322,3.198,4.509,5.089,6.494c0.04,0.042,0.153,0.164,0.195,0.206  c0.896,0.929,1.847,1.83,2.81,2.663l0.498,0.419c1.093,0.919,2.105,1.699,3.096,2.388c1.096,0.764,2.096,1.403,3.064,1.963  l184.411,106.428c6.538,3.773,13.985,5.768,21.534,5.768l0,0c7.554,0,15.005-1.998,21.547-5.776l184.372-106.49  c0.945-0.545,1.89-1.149,2.982-1.905c0.986-0.682,1.999-1.461,3.181-2.448c0.14-0.116,0.278-0.231,0.405-0.34  c0.99-0.854,1.941-1.752,2.84-2.681l0.159-0.171c4.695-4.904,8.206-10.929,10.149-17.421l0.116-0.406  c0.224-0.775,0.427-1.556,0.605-2.34l0.169-0.773c0.143-0.684,0.27-1.374,0.398-2.177c0.042-0.259,0.082-0.518,0.121-0.792  c0.094-0.69,0.168-1.383,0.228-2.071l0.014-0.143c0.024-0.24,0.047-0.48,0.063-0.721c0.071-1.043,0.105-1.999,0.105-2.931  L483.457,149.503z M57.357,382.999c-0.538-0.375-1.126-0.829-1.787-1.385l-0.293-0.246c-0.568-0.489-1.119-1.011-1.589-1.497  c-0.027-0.03-0.129-0.139-0.157-0.169c-1.099-1.155-2.094-2.424-2.956-3.772c-0.016-0.025-0.031-0.049-0.047-0.074  c-1.237-1.948-2.195-4.047-2.849-6.239l-0.069-0.246c-0.127-0.442-0.244-0.888-0.351-1.354l-0.093-0.428  c-0.082-0.395-0.154-0.793-0.217-1.183l-0.082-0.523c-0.054-0.4-0.096-0.803-0.13-1.203l-0.048-0.493  c-0.039-0.561-0.064-1.125-0.064-1.699l-0.035-212.912c0-3.24,0.632-6.425,1.881-9.467c0.729-1.781,1.662-3.472,2.769-5.025  c1.696-2.378,3.755-4.415,6.119-6.053c0.668-0.463,1.216-0.815,1.725-1.109l52.696-30.436v317.04l-52.65-30.386  C58.602,383.836,58.038,383.473,57.357,382.999z M465.348,364.1l-0.051,0.52c-0.035,0.404-0.076,0.805-0.129,1.191l-0.063,0.407  c0,0.004-0.02,0.125-0.02,0.127c-0.064,0.404-0.137,0.804-0.231,1.251l-0.084,0.387c-0.104,0.457-0.222,0.909-0.347,1.341  l-0.071,0.254c-1.128,3.764-3.164,7.258-5.908,10.125l-0.083,0.09c-0.512,0.529-1.066,1.051-1.649,1.555l-0.276,0.228  c-0.684,0.573-1.255,1.014-1.791,1.384c-0.671,0.465-1.221,0.817-1.731,1.113l-52.694,30.436V169.488  c0-4.994-4.048-9.041-9.041-9.041s-9.041,4.047-9.041,9.041v255.468l-113.597,65.61c-3.796,2.192-8.119,3.351-12.502,3.351  c-4.381,0-8.701-1.158-12.496-3.348l-113.674-65.606V87.045l113.596-65.61c3.795-2.193,8.119-3.351,12.504-3.351  c4.381,0,8.701,1.157,12.495,3.347l113.674,65.606v50.009c0,4.994,4.048,9.041,9.041,9.041s9.041-4.047,9.041-9.041V97.471  l52.65,30.385c0.522,0.301,1.089,0.667,1.779,1.145c3.881,2.7,6.908,6.445,8.757,10.832c0.448,1.062,0.825,2.157,1.116,3.252  c0.565,2.121,0.854,4.281,0.854,6.418l0.035,212.916C465.41,362.993,465.384,363.561,465.348,364.1z M354.321,235.596l1.266-23.505  c0.124-2.3-0.735-4.545-2.364-6.172c-1.629-1.629-3.87-2.481-6.171-2.363l-23.506,1.265c2.228-3.425,1.566-8.05-1.671-10.694  c-3.468-2.834-8.578-2.317-11.411,1.15l-11.021,13.49c-0.001,0.002-0.004,0.004-0.005,0.006l-10.459,12.804l3.039-30.144  l1.748-17.339c0.45-4.457-2.799-8.434-7.257-8.882c-4.155-0.432-7.897,2.382-8.744,6.381l-15.727-17.516  c-1.538-1.713-3.732-2.691-6.035-2.691c-2.303,0-4.497,0.979-6.035,2.691l-15.727,17.516c-0.847-4-4.597-6.812-8.744-6.381  c-4.457,0.448-7.706,4.425-7.257,8.882l1.748,17.339l3.039,30.144l-10.459-12.804c-0.001-0.002-0.004-0.004-0.005-0.006  l-11.021-13.49c-2.833-3.467-7.943-3.984-11.411-1.15c-3.238,2.644-3.899,7.269-1.671,10.694l-23.506-1.265  c-2.299-0.123-4.544,0.734-6.171,2.363c-1.627,1.629-2.487,3.872-2.364,6.172l1.266,23.505c-3.425-2.228-8.05-1.566-10.695,1.671  c-2.834,3.469-2.318,8.578,1.15,11.414l13.492,11.021c0.001,0.001,0.002,0.004,0.005,0.005l39.103,31.943v17.834  c0,4.48,3.631,8.111,8.111,8.111h39.043v34.914c0,4.48,3.631,8.111,8.111,8.111c4.48,0,8.111-3.631,8.111-8.111v-34.914h39.044  c4.48,0,8.111-3.631,8.111-8.111v-17.834l39.103-31.943c0.001-0.001,0.002-0.004,0.005-0.005l13.492-11.021  c3.468-2.835,3.984-7.944,1.15-11.414C362.371,234.03,357.746,233.368,354.321,235.596z M337.332,249.41l-39.307,32.109  c-1.885,1.541-2.98,3.847-2.98,6.282v13.572h-78.088v-13.572c0-2.435-1.093-4.741-2.98-6.282L174.67,249.41l-1.571-29.17  l29.171,1.57l25.246,30.907c2.264,2.773,6.078,3.735,9.385,2.362c3.307-1.371,5.325-4.745,4.967-8.307l-5.383-53.398l19.516-21.737  l19.516,21.737l-5.384,53.397c-0.358,3.562,1.659,6.937,4.967,8.307c3.307,1.372,7.121,0.411,9.385-2.362l25.246-30.907l29.171-1.57  L337.332,249.41z"/>
<g>
</g>
<g>
</g>
<g>
</g>
<g>
</g>
<g>
</g>
<g>
</g>
<g>
</g>
<g>
</g>
<g>
</g>
<g>
</g>
<g>
</g>
<g>
</g>
<g>
</g>
<g>
</g>
<g>
</g>
</svg>